<svg aria-hidden="true" style="position: absolute; width: 0; height: 0; overflow: hidden;" version="1.1" xmlns="http://www.w3.org/2000/svg" xmlns:xlink="http://www.w3.org/1999/xlink">
<defs>
<symbol id="icon-game-controller" viewBox="0 0 20 20">
<path d="M19.444 9.361c-0.882-4.926-2.854-6.379-3.903-6.379-1.637 0-2.057 1.217-5.541 1.258-3.484-0.041-3.904-1.258-5.541-1.258-1.049 0-3.022 1.453-3.904 6.379-0.503 2.812-1.049 7.010 0.252 7.514 1.619 0.627 2.168-0.941 3.946-2.266 1.805-1.343 2.671-1.659 5.247-1.659s3.442 0.316 5.247 1.659c1.778 1.324 2.327 2.893 3.946 2.266 1.301-0.504 0.755-4.701 0.251-7.514zM6 10c-1.105 0-2-0.896-2-2s0.895-2 2-2 2 0.895 2 2c0 1.104-0.896 2-2 2zM13 10c-0.553 0-1-0.447-1-1s0.447-1 1-1c0.553 0 1 0.447 1 1s-0.447 1-1 1zM15 8c-0.553 0-1-0.447-1-1s0.447-1 1-1c0.553 0 1 0.447 1 1s-0.447 1-1 1z"></path>
</symbol>
<symbol id="icon-gauge" viewBox="0 0 20 20">
<path d="M8.127 13.6c-0.689 1.197-0.225 2.18 0.732 2.732 0.956 0.553 2.041 0.465 2.732-0.732 0.689-1.195 5.047-11.865 4.668-12.084s-7.442 8.888-8.132 10.084zM10 6c0.438 0 0.864 0.037 1.281 0.109 0.438-0.549 0.928-1.154 1.405-1.728-0.852-0.246-1.752-0.381-2.686-0.381-5.607 0-10 4.729-10 10.766 0 0.371 0.016 0.742 0.049 1.103 0.049 0.551 0.54 0.955 1.084 0.908 0.551-0.051 0.957-0.535 0.908-1.086-0.027-0.302-0.041-0.615-0.041-0.925 0-4.916 3.514-8.766 8-8.766zM17.219 7.25c-0.279 0.75-0.574 1.514-0.834 2.174 1.015 1.47 1.615 3.314 1.615 5.342 0 0.316-0.015 0.635-0.043 0.943-0.050 0.551 0.355 1.037 0.905 1.088 0.030 0.002 0.061 0.004 0.092 0.004 0.511 0 0.948-0.391 0.995-0.91 0.033-0.37 0.051-0.748 0.051-1.125 0-2.954-1.053-5.59-2.781-7.516z"></path>
</symbol>
</defs>
</svg>
